<?xml version="1.0" encoding="iso-8859-1"?>
<!-- Generator: Adobe Illustrator 19.0.0, SVG Export Plug-In . SVG Version: 6.00 Build 0)  -->
<svg version="1.1" id="Layer_1" xmlns="http://www.w3.org/2000/svg" xmlns:xlink="http://www.w3.org/1999/xlink" x="0px" y="0px"
	 viewBox="0 0 512.001 512.001" style="enable-background:new 0 0 512.001 512.001;" xml:space="preserve">
<path style="fill:#FFC170;" d="M418.483,148.718c-13.749-51.161-46.631-94.11-92.701-121.044
	C279.346,0.528,225.301-6.957,173.604,6.593C121.906,20.147,78.486,53.183,51.34,99.62C24.193,146.055,16.708,200.1,30.259,251.797
	l0.256,0.979l57.181,147.6V512h227.673V424.43h115.173v-93.495l57.793-14.448L418.483,148.718z"/>
<path style="fill:#FF9811;" d="M418.483,148.718c-13.749-51.161-46.631-94.11-92.701-121.044
	C295.061,9.716,261.011,0.371,226.513,0.02v511.981h88.856v-87.569h115.173v-93.495l57.793-14.448L418.483,148.718z"/>
<g>
	<path style="fill:#FFFFFF;" d="M137.452,143.417c-2.629-3-5.787-5.387-9.385-7.096c-3.612-1.711-7.586-2.579-11.814-2.579
		c-4.229,0-8.204,0.868-11.815,2.58c-3.598,1.707-6.755,4.093-9.385,7.095c-2.623,2.991-4.7,6.58-6.172,10.667
		c-1.468,4.072-2.213,8.588-2.213,13.423s0.744,9.351,2.213,13.423c1.472,4.087,3.548,7.676,6.172,10.668
		c2.634,3.005,5.795,5.377,9.395,7.046c3.606,1.673,7.578,2.522,11.806,2.522c4.227,0,8.198-0.848,11.806-2.522
		c3.6-1.67,6.761-4.042,9.395-7.046c2.623-2.992,4.699-6.582,6.172-10.668c1.469-4.077,2.215-8.592,2.215-13.423
		s-0.745-9.346-2.215-13.423C142.151,149.997,140.074,146.408,137.452,143.417z M111.446,158.024
		c1.247-2.191,2.819-3.255,4.805-3.255c1.842,0,3.344,1.066,4.591,3.255c1.354,2.381,2.041,5.572,2.041,9.484
		c0,3.911-0.686,7.082-2.036,9.424c-1.248,2.159-2.751,3.209-4.596,3.209c-1.989,0-3.563-1.05-4.81-3.21
		c-1.351-2.338-2.036-5.508-2.036-9.424C109.406,163.592,110.092,160.401,111.446,158.024z"/>
	<path style="fill:#FFFFFF;" d="M204.559,136.528h-22.715l-0.329,0.66c-0.239,0.479-0.87,1.33-2.52,2.657
		c-1.414,1.138-3.004,2.222-4.727,3.219c-1.731,1.005-3.488,1.884-5.221,2.611c-2.032,0.854-3.143,1.032-3.718,1.032h-1.191v21.026
		h1.191c1.45,0,3.097-0.229,4.895-0.679c1.77-0.443,3.543-1.039,5.267-1.774c1.723-0.732,3.306-1.535,4.705-2.381
		c0.427-0.258,0.825-0.521,1.193-0.789v17.386h-15.215v20.597h51.993v-20.597h-13.61v-42.968H204.559z"/>
	<path style="fill:#FFFFFF;" d="M240.623,167.055c1.768-0.443,3.542-1.039,5.267-1.774c1.724-0.732,3.306-1.535,4.704-2.381
		c0.427-0.258,0.825-0.521,1.193-0.789v17.386h-15.215v20.597h51.993v-20.597h-13.608v-42.968h-22.714l-0.33,0.66
		c-0.239,0.479-0.869,1.33-2.52,2.657c-1.414,1.138-3.001,2.222-4.725,3.219c-1.732,1.005-3.488,1.884-5.223,2.611
		c-2.03,0.854-3.142,1.032-3.716,1.032h-1.191v21.026h1.191C237.176,167.734,238.825,167.505,240.623,167.055z"/>
	<path style="fill:#FFFFFF;" d="M322.823,198.644c3.606,1.673,7.578,2.522,11.806,2.522c4.227,0,8.2-0.848,11.806-2.522
		c3.599-1.67,6.763-4.042,9.395-7.046c2.623-2.992,4.699-6.582,6.172-10.668c1.469-4.077,2.216-8.592,2.216-13.423
		c0-4.83-0.747-9.346-2.216-13.423c-1.472-4.087-3.548-7.677-6.172-10.668c-2.63-3-5.785-5.387-9.385-7.096
		c-3.611-1.711-7.588-2.579-11.815-2.579c-4.228,0-8.204,0.868-11.815,2.58c-3.598,1.707-6.755,4.093-9.385,7.095
		c-2.623,2.991-4.699,6.58-6.172,10.667c-1.467,4.072-2.213,8.588-2.213,13.423s0.746,9.351,2.213,13.423
		c1.472,4.087,3.548,7.676,6.172,10.668C316.062,194.604,319.223,196.975,322.823,198.644z M329.824,158.024
		c1.247-2.191,2.818-3.255,4.804-3.255c1.842,0,3.344,1.066,4.592,3.255c1.354,2.381,2.04,5.572,2.04,9.484
		c0,3.911-0.683,7.082-2.037,9.424c-1.247,2.159-2.75,3.209-4.595,3.209c-1.988,0-3.562-1.05-4.809-3.21
		c-1.351-2.338-2.037-5.508-2.037-9.424C327.783,163.592,328.468,160.401,329.824,158.024z"/>
	<path style="fill:#FFFFFF;" d="M137.452,220.091c-2.629-3-5.787-5.387-9.385-7.096c-3.612-1.711-7.586-2.579-11.814-2.579
		c-4.229,0-8.204,0.868-11.815,2.58c-3.598,1.707-6.755,4.093-9.385,7.095c-2.623,2.991-4.7,6.58-6.172,10.667
		c-1.468,4.072-2.213,8.588-2.213,13.423c0,4.835,0.744,9.351,2.213,13.423c1.472,4.087,3.548,7.676,6.172,10.668
		c2.634,3.005,5.795,5.377,9.395,7.046c3.606,1.673,7.578,2.522,11.806,2.522c4.227,0,8.198-0.848,11.806-2.522
		c3.6-1.67,6.761-4.042,9.395-7.046c2.623-2.992,4.699-6.582,6.172-10.668c1.469-4.077,2.215-8.593,2.215-13.423
		c0-4.83-0.745-9.346-2.215-13.423C142.151,226.672,140.074,223.082,137.452,220.091z M111.446,234.697
		c1.247-2.191,2.819-3.255,4.805-3.255c1.842,0,3.344,1.066,4.591,3.255c1.354,2.381,2.041,5.572,2.041,9.484
		c0,3.911-0.686,7.082-2.036,9.424c-1.248,2.159-2.751,3.209-4.596,3.209c-1.989,0-3.563-1.05-4.81-3.21
		c-1.351-2.338-2.036-5.508-2.036-9.424C109.406,240.266,110.092,237.075,111.446,234.697z"/>
	<path style="fill:#FFFFFF;" d="M204.559,213.202h-22.715l-0.329,0.66c-0.239,0.479-0.87,1.33-2.52,2.657
		c-1.414,1.138-3.004,2.222-4.727,3.219c-1.731,1.005-3.488,1.884-5.221,2.611c-2.032,0.854-3.143,1.032-3.718,1.032h-1.191v21.026
		h1.191c1.45,0,3.097-0.229,4.895-0.679c1.77-0.443,3.543-1.039,5.267-1.774c1.723-0.732,3.306-1.535,4.705-2.381
		c0.427-0.258,0.825-0.521,1.193-0.789v17.386h-15.215v20.597h51.993v-20.597h-13.61v-42.968H204.559z"/>
	<path style="fill:#FFFFFF;" d="M285.431,220.091c-2.63-3-5.787-5.387-9.388-7.096c-3.611-1.711-7.585-2.579-11.813-2.579
		c-4.23,0-8.204,0.868-11.815,2.58c-3.599,1.707-6.758,4.093-9.385,7.095c-2.623,2.991-4.7,6.58-6.172,10.667
		c-1.469,4.072-2.215,8.588-2.215,13.423c0,4.835,0.745,9.351,2.215,13.423c1.469,4.087,3.547,7.676,6.172,10.668
		c2.632,3.005,5.792,5.377,9.395,7.046c3.606,1.673,7.578,2.522,11.806,2.522c4.225,0,8.197-0.848,11.806-2.522
		c3.599-1.67,6.76-4.042,9.395-7.046c2.623-2.992,4.698-6.582,6.172-10.668c1.469-4.077,2.213-8.593,2.213-13.423
		c0-4.83-0.744-9.346-2.213-13.423C290.129,226.672,288.051,223.082,285.431,220.091z M259.423,234.697
		c1.247-2.191,2.818-3.255,4.806-3.255c1.842,0,3.343,1.066,4.59,3.255c1.354,2.381,2.042,5.572,2.042,9.484
		c0,3.911-0.686,7.082-2.037,9.424c-1.248,2.159-2.751,3.209-4.594,3.209c-1.991,0-3.562-1.05-4.809-3.21
		c-1.354-2.338-2.037-5.508-2.037-9.424C257.384,240.266,258.07,237.075,259.423,234.697z"/>
	<path style="fill:#FFFFFF;" d="M352.536,256.171v-42.968h-22.715l-0.329,0.66c-0.239,0.479-0.869,1.33-2.521,2.657
		c-1.414,1.138-3.003,2.222-4.725,3.219c-1.732,1.005-3.488,1.884-5.223,2.611c-2.03,0.854-3.142,1.032-3.717,1.032h-1.191v21.026
		h1.191c1.45,0,3.099-0.229,4.896-0.679c1.769-0.443,3.542-1.039,5.267-1.774c1.723-0.732,3.305-1.535,4.704-2.381
		c0.427-0.258,0.825-0.521,1.194-0.789v17.386h-15.216v20.597h51.993v-20.597H352.536L352.536,256.171z"/>
</g>
<g>
</g>
<g>
</g>
<g>
</g>
<g>
</g>
<g>
</g>
<g>
</g>
<g>
</g>
<g>
</g>
<g>
</g>
<g>
</g>
<g>
</g>
<g>
</g>
<g>
</g>
<g>
</g>
<g>
</g>
</svg>
